PathFileType	4	(X/Y/Z)	D:\Share\Shared_Data\Ergonomics\Sit To Stand Pertubation\S1\Perturbed_NoHarness.trc
DataRate	CameraRate	NumFrames	NumMarkers	Units	OrigDataRate	OrigDataStartFrame	OrigNumFrames	
100	100	11	18	m	100	9474	191
Frame#	Time	L_ASIS			R_ASIS			R_Pelvis			V_Sacral			L_Pelvis			Clavical			R_Acromium			L_Acromium			Sternum			Torso			R_Thigh_Med			R_Thigh_Lat			R_Thigh			R_Shank_Med			R_Shank_Lat			R_Shank			R_Heel			R_Toe			
		X1	Y1	Z1	X2	Y2	Z2	X3	Y3	Z3	X4	Y4	Z4	X5	Y5	Z5	X6	Y6	Z6	X7	Y7	Z7	X8	Y8	Z8	X9	Y9	Z9	X10	Y10	Z10	X11	Y11	Z11	X12	Y12	Z12	X13	Y13	Z13	X14	Y14	Z14	X15	Y15	Z15	X16	Y16	Z16	X17	Y17	Z17	X18	Y18	Z18	

9474	94.73	0.029148542	0.64730756	-0.11267808	0.019038805	0.63142072	0.095878426	-0.064816803	0.62877161	0.12726255	-0.16597975	0.56263452	-0.0032197335	-0.065890633	0.63020624	-0.15051634	0.025505514	0.96640186	-0.0099794111	-0.033926991	1.0408615	0.1367807	-0.077760689	0.99408752	-0.20769971	0.012649354	0.98251617	0.091454185	0.0217365	0.96941254	-0.069625832	0.37376239	0.47418167	0.017067978	0.30806506	0.43626337	0.15597095	0.1791899	0.55179938	0.10352283	0.35469128	0.071043571	0.1117606	0.32472717	0.097671104	0.17819489	0.31119644	0.31014468	0.18100311	0.2824935	0.043115944	0.1336599	0.48768729	0.053424412	0.13518016
9475	94.74	0.029307554	0.64723474	-0.11144617	0.019091	0.63139026	0.095878349	-0.064778267	0.62878162	0.12725655	-0.16596213	0.56265802	-0.0032129292	-0.065860573	0.63021106	-0.15051245	0.025512882	0.96638379	-0.010020242	-0.03395158	1.0408594	0.13673369	-0.077777237	0.99401727	-0.20773318	0.012653208	0.98250726	0.091420158	0.021742617	0.96939801	-0.069668747	0.37441034	0.47484561	0.0168675	0.30806317	0.43625916	0.15597847	0.17920155	0.55179504	0.10352676	0.35476361	0.0708461	0.11186964	0.32473187	0.097671089	0.17818788	0.31119122	0.31014188	0.18100386	0.28249554	0.043123646	0.13365704	0.48769022	0.053418404	0.13517863
9476	94.75	0.029470551	0.64715955	-0.110214	0.019146299	0.63135693	0.095886215	-0.064738029	0.62879309	0.12725008	-0.16594658	0.56267523	-0.0032092578	-0.065830826	0.6302157	-0.15050659	0.025522442	0.96635565	-0.010058739	-0.033974041	1.0408475	0.13669185	-0.077791115	0.99393811	-0.2077628	0.012662094	0.98249103	0.091387886	0.021754469	0.96937433	-0.069708725	0.37508975	0.47554404	0.016653854	0.30806015	0.43625537	0.15598776	0.17921472	0.55179077	0.10353423	0.35489832	0.070594376	0.11198123	0.3247374	0.097671837	0.17817853	0.31118506	0.3101394	0.1810049	0.28249826	0.04313224	0.13365395	0.48769397	0.053412289	0.13517595
9477	94.76	0.029632711	0.64708331	-0.10903061	0.019204369	0.6313208	0.095904007	-0.064696838	0.6288056	0.12724367	-0.16593394	0.56268536	-0.0032086496	-0.065802162	0.63021991	-0.1504987	0.025537676	0.96631445	-0.010094081	-0.033989948	1.0408245	0.13665599	-0.077796844	0.99384808	-0.20778839	0.012679541	0.98246527	0.091357506	0.021776667	0.96933862	-0.069745125	0.37575705	0.47623355	0.016440243	0.30805579	0.4362525	0.15599835	0.17922905	0.55178699	0.10354593	0.35509387	0.070289085	0.11209644	0.32474374	0.097673706	0.17816624	0.31117819	0.31013754	0.1810058	0.28250168	0.043141624	0.13365063	0.48769867	0.053406414	0.13517169
9478	94.77	0.029789503	0.64700696	-0.10793765	0.019264536	0.63128186	0.095933624	-0.064655731	0.62881885	0.12723787	-0.16592522	0.56268732	-0.0032112069	-0.065775589	0.63022321	-0.15048888	0.025563276	0.96625702	-0.010125463	-0.033993305	1.0407881	0.13662685	-0.077787636	0.99374561	-0.20780966	0.012710254	0.98242798	0.091329185	0.021815029	0.96928784	-0.069777229	0.37637402	0.47687637	0.016238096	0.30805005	0.43625104	0.15600952	0.17924405	0.55178418	0.1035624	0.35534744	0.069930527	0.11221723	0.32475076	0.097677132	0.17815042	0.31117075	0.3101366	0.181006	0.28250577	0.043151627	0.13364705	0.48770432	0.053401302	0.13516554
9479	94.78	0.02993697	0.6469306	-0.10696687	0.019325788	0.63124042	0.09597673	-0.064615974	0.62883246	0.12723328	-0.16592137	0.56267993	-0.0032171719	-0.065752304	0.6302251	-0.1504772	0.025605309	0.96618036	-0.010152111	-0.033976326	1.0407371	0.13660516	-0.077755341	0.99362982	-0.2078264	0.012760306	0.98237683	0.091303101	0.021876694	0.96921881	-0.069804375	0.37691077	0.47744312	0.016056335	0.30804263	0.43625162	0.15602042	0.17925885	0.55178296	0.10358414	0.3556546	0.069519539	0.11234587	0.32475812	0.097682564	0.17813051	0.31116302	0.3101369	0.18100476	0.2825105	0.043162014	0.13364323	0.48771094	0.053397636	0.13515704
9480	94.79	0.030071903	0.64685431	-0.10613887	0.019386805	0.63119696	0.096034637	-0.064579025	0.62884583	0.12723047	-0.16592348	0.56266205	-0.00322685	-0.065733742	0.63022491	-0.15046379	0.025671329	0.96608148	-0.010173301	-0.033929306	1.04067	0.1365916	-0.077690369	0.99350012	-0.20783833	0.012837298	0.98230957	0.091279549	0.021970163	0.96912848	-0.069825905	0.37734668	0.477914	0.015900981	0.30803345	0.43625464	0.15602997	0.17927234	0.55178442	0.1036115	0.356009	0.06905838	0.11248437	0.32476532	0.097690453	0.17810602	0.31115524	0.31013895	0.18100128	0.28251566	0.043172455	0.13363919	0.48771854	0.05339629	0.1351458
9481	94.8	0.030191988	0.64677753	-0.10546278	0.019446041	0.6311521	0.096108017	-0.06454644	0.62885828	0.12722996	-0.16593251	0.56263281	-0.0032404952	-0.065721336	0.63022229	-0.15044879	0.025770437	0.96595764	-0.010188392	-0.033840504	1.0405863	0.13658678	-0.077581734	0.99335693	-0.20784512	0.012950466	0.98222394	0.091258942	0.022105331	0.96901404	-0.069841217	0.37767059	0.47827847	0.015775206	0.30802219	0.43626074	0.15603706	0.179283	0.55178912	0.1036446	0.35640244	0.068551346	0.11263393	0.3247717	0.097701202	0.1780766	0.31114755	0.31014307	0.18099466	0.282521	0.043182556	0.13363489	0.48772678	0.053398323	0.1351315
9482	94.81	0.030295855	0.64669952	-0.10493727	0.01950189	0.63110651	0.096196793	-0.064519737	0.62886926	0.12723216	-0.16594942	0.56259137	-0.0032581692	-0.065716545	0.63021655	-0.15043236	0.025913288	0.96580634	-0.01019684	-0.033696156	1.0404851	0.13659113	-0.077416992	0.99320166	-0.20784637	0.013110751	0.98211768	0.091241829	0.022293409	0.9688728	-0.069849854	0.3778797	0.47853488	0.015679639	0.30800867	0.43627029	0.15604045	0.17928918	0.55179791	0.10368329	0.35682468	0.068005203	0.11279475	0.3247764	0.097715172	0.17804195	0.31114008	0.3101496	0.18098399	0.28252618	0.04319183	0.13363039	0.48773544	0.053404957	0.13511388
9483	94.82	0.030383053	0.64661938	-0.10455215	0.019552843	0.6310611	0.096299904	-0.064500237	0.62887817	0.12723735	-0.1659751	0.5625379	-0.0032795951	-0.065720657	0.63020734	-0.15041457	0.026112038	0.96562567	-0.01019823	-0.033480534	1.0403668	0.13660504	-0.077182411	0.99303699	-0.2078418	0.013330772	0.98198846	0.091228882	0.022546854	0.96870258	-0.069851562	0.37797842	0.47868826	0.015612867	0.30799261	0.43628357	0.15603891	0.17928899	0.55181158	0.1037271	0.35726389	0.067429138	0.11296577	0.32477835	0.097732651	0.17800203	0.31113275	0.310159	0.18096834	0.28253091	0.04319976	0.1336257	0.48774402	0.053417553	0.13509286
9484	94.83	0.030454	0.64653577	-0.10429073	0.0195977	0.6310166	0.096415276	-0.064488853	0.62888464	0.12724553	-0.16601009	0.56247308	-0.003304024	-0.065734688	0.63019458	-0.15039548	0.02638018	0.965414	-0.010192281	-0.033176098	1.0402313	0.13662872	-0.076863075	0.99286658	-0.2078311	0.013624723	0.98183429	0.091220886	0.022879192	0.96850171	-0.069846344	0.3779762	0.47874887	0.015572021	0.30797375	0.43630072	0.15603134	0.17928038	0.55183051	0.10377518	0.35770737	0.066834351	0.11314484	0.32477621	0.097753792	0.17795688	0.31112552	0.31017142	0.18094688	0.28253458	0.043205776	0.1336209	0.48775208	0.053437572	0.13506857
